<svg xmlns="http://www.w3.org/2000/svg" xmlns:xlink="http://www.w3.org/1999/xlink" preserveAspectRatio="xMidYMid" width="50" height="50" viewBox="0 0 50 50">
  <defs>
    <style>

      .cls-3 {
        fill: #000000;
      }

      .cls-4 {
        fill: #ffffff;
      }
    </style>
  </defs>
  <g id="arrow-button-leftsvg">
    <circle id="circle-1" class="cls-3" cx="25" cy="25" r="25"/>
    <path d="M29.744,33.647 C29.744,33.647 20.501,24.644 20.501,24.644 C20.501,24.644 29.744,15.639 29.744,15.639 C30.093,15.300 30.093,14.749 29.744,14.410 C29.744,14.410 29.145,13.826 29.145,13.826 C28.797,13.486 28.232,13.486 27.883,13.826 C27.883,13.826 18.009,23.445 18.009,23.445 C18.009,23.445 17.410,24.029 17.410,24.029 C17.061,24.368 17.061,24.918 17.410,25.259 C17.410,25.259 18.009,25.842 18.009,25.842 C18.009,25.842 27.883,35.460 27.883,35.460 C28.232,35.801 28.797,35.801 29.145,35.460 C29.145,35.460 29.744,34.877 29.744,34.877 C30.093,34.537 30.093,33.987 29.744,33.647 Z" id="path-1" class="cls-4" fill-rule="evenodd"/>
  </g>
</svg>
