<svg xmlns="http://www.w3.org/2000/svg" xmlns:xlink="http://www.w3.org/1999/xlink" preserveAspectRatio="xMidYMid" width="50" height="50" viewBox="0 0 50 50">
  <defs>
    <style>

      .cls-3 {
        fill: #000000;
      }

      .cls-4 {
        fill: #ffffff;
      }
    </style>
  </defs>
  <g id="arrow-button-rightsvg">
    <circle id="circle-1" class="cls-3" cx="25" cy="25" r="25"/>
    <path d="M20.256,16.355 C20.256,16.355 29.499,25.358 29.499,25.358 C29.499,25.358 20.256,34.364 20.256,34.364 C19.907,34.703 19.907,35.252 20.256,35.592 C20.256,35.592 20.855,36.175 20.855,36.175 C21.204,36.516 21.769,36.516 22.117,36.175 C22.117,36.175 31.991,26.557 31.991,26.557 C31.991,26.557 32.591,25.973 32.591,25.973 C32.939,25.634 32.939,25.083 32.591,24.744 C32.591,24.744 31.991,24.160 31.991,24.160 C31.991,24.160 22.117,14.540 22.117,14.540 C21.769,14.201 21.204,14.201 20.855,14.540 C20.855,14.540 20.256,15.125 20.256,15.125 C19.907,15.464 19.907,16.014 20.256,16.355 Z" id="path-1" class="cls-4" fill-rule="evenodd"/>
  </g>
</svg>
