<svg xmlns="http://www.w3.org/2000/svg" xmlns:xlink="http://www.w3.org/1999/xlink" preserveAspectRatio="xMidYMid" width="20" height="17" viewBox="0 0 20 17">
  <defs>
    <style>

      .cls-2 {
        fill: #ffffff;
      }
    </style>
  </defs>
  <path d="M20.002,3.924 C19.913,5.838 18.553,8.458 15.922,11.784 C13.202,15.259 10.901,16.996 9.019,16.996 C7.853,16.996 6.865,15.938 6.060,13.822 C5.521,11.883 4.983,9.943 4.445,8.003 C3.846,5.888 3.204,4.829 2.518,4.829 C2.368,4.829 1.844,5.139 0.948,5.755 C0.948,5.755 0.006,4.564 0.006,4.564 C0.994,3.711 1.968,2.858 2.926,2.005 C4.243,0.887 5.231,0.298 5.890,0.239 C7.447,0.092 8.405,1.138 8.765,3.377 C9.154,5.793 9.423,7.295 9.574,7.883 C10.023,9.887 10.516,10.888 11.056,10.888 C11.475,10.888 12.104,10.238 12.942,8.938 C13.780,7.638 14.229,6.649 14.289,5.969 C14.409,4.847 13.960,4.285 12.942,4.285 C12.463,4.285 11.970,4.393 11.462,4.607 C12.445,1.442 14.323,-0.095 17.096,-0.007 C19.152,0.052 20.121,1.362 20.002,3.924 Z" id="path-1" class="cls-2" fill-rule="evenodd"/>
</svg>
