<svg xmlns="http://www.w3.org/2000/svg" xmlns:xlink="http://www.w3.org/1999/xlink" preserveAspectRatio="xMidYMid" width="20" height="16" viewBox="0 0 20 16">
  <defs>
    <style>

      .cls-2 {
        fill: #ffffff;
      }
    </style>
  </defs>
  <path d="M19.994,1.889 C19.259,2.211 18.467,2.428 17.638,2.525 C18.485,2.025 19.135,1.234 19.442,0.289 C18.649,0.752 17.772,1.089 16.836,1.270 C16.088,0.485 15.022,-0.005 13.842,-0.005 C11.577,-0.005 9.740,1.803 9.740,4.036 C9.740,4.352 9.775,4.660 9.846,4.956 C6.437,4.788 3.414,3.179 1.391,0.734 C1.037,1.331 0.835,2.025 0.835,2.766 C0.835,4.168 1.559,5.404 2.660,6.129 C1.988,6.108 1.355,5.927 0.802,5.624 C0.802,5.641 0.802,5.657 0.802,5.674 C0.802,7.633 2.215,9.266 4.092,9.637 C3.749,9.730 3.385,9.779 3.011,9.779 C2.747,9.779 2.490,9.753 2.240,9.707 C2.762,11.312 4.277,12.480 6.072,12.513 C4.667,13.597 2.899,14.243 0.977,14.243 C0.646,14.243 0.320,14.224 -0.002,14.187 C1.814,15.333 3.971,16.002 6.287,16.002 C13.833,16.002 17.959,9.844 17.959,4.504 C17.959,4.328 17.955,4.154 17.947,3.981 C18.749,3.411 19.444,2.699 19.994,1.889 Z" id="path-1" class="cls-2" fill-rule="evenodd"/>
</svg>
