<svg xmlns="http://www.w3.org/2000/svg" xmlns:xlink="http://www.w3.org/1999/xlink" preserveAspectRatio="xMidYMid" width="15" height="21" viewBox="0 0 15 21">
  <defs>
    <style>

      .cls-2 {
        fill: #ffffff;
      }
    </style>
  </defs>
  <path d="M8.989,14.462 C7.787,14.462 6.657,13.791 6.270,13.029 C6.270,13.029 5.623,15.678 5.487,16.189 C5.005,17.995 3.587,19.802 3.478,19.950 C3.401,20.054 3.231,20.021 3.213,19.884 C3.183,19.655 2.821,17.376 3.247,15.517 C3.460,14.583 4.678,9.253 4.678,9.253 C4.678,9.253 4.323,8.519 4.323,7.434 C4.323,5.731 5.279,4.459 6.470,4.459 C7.482,4.459 7.971,5.244 7.971,6.185 C7.971,7.235 7.323,8.807 6.988,10.263 C6.709,11.483 7.580,12.478 8.745,12.478 C10.853,12.478 12.273,9.680 12.273,6.366 C12.273,3.847 10.631,1.961 7.642,1.961 C4.267,1.961 2.163,4.561 2.163,7.466 C2.163,8.467 2.449,9.174 2.897,9.720 C3.103,9.972 3.132,10.073 3.057,10.361 C3.003,10.573 2.881,11.082 2.830,11.283 C2.756,11.575 2.528,11.679 2.273,11.571 C0.718,10.916 -0.006,9.157 -0.006,7.180 C-0.006,3.915 2.660,-0.001 7.948,-0.001 C12.198,-0.001 14.994,3.175 14.994,6.584 C14.994,11.093 12.567,14.462 8.989,14.462 Z" id="path-1" class="cls-2" fill-rule="evenodd"/>
</svg>
