<svg xmlns="http://www.w3.org/2000/svg" xmlns:xlink="http://www.w3.org/1999/xlink" preserveAspectRatio="xMidYMid" width="20" height="20" viewBox="0 0 20 20">
  <defs>
    <style>

      .cls-2 {
        fill: #ffffff;
      }
    </style>
  </defs>
  <path d="M17.688,-0.006 C17.688,-0.006 2.315,-0.006 2.315,-0.006 C1.042,-0.006 0.009,1.027 0.009,2.302 C0.009,2.302 0.009,17.689 0.009,17.689 C0.009,18.964 1.042,19.997 2.315,19.997 C2.315,19.997 17.688,19.997 17.688,19.997 C18.961,19.997 19.993,18.964 19.993,17.689 C19.993,17.689 19.993,2.302 19.993,2.302 C19.993,1.027 18.961,-0.006 17.688,-0.006 ZM10.001,6.149 C12.124,6.149 13.845,7.871 13.845,9.995 C13.845,12.120 12.124,13.843 10.001,13.843 C7.879,13.843 6.158,12.120 6.158,9.995 C6.158,7.871 7.879,6.149 10.001,6.149 ZM17.688,16.920 C17.688,17.344 17.343,17.689 16.918,17.689 C16.918,17.689 3.084,17.689 3.084,17.689 C2.659,17.689 2.315,17.344 2.315,16.920 C2.315,16.920 2.315,8.456 2.315,8.456 C2.315,8.456 4.055,8.456 4.055,8.456 C3.928,8.949 3.853,9.463 3.853,9.995 C3.853,13.395 6.605,16.150 10.001,16.150 C13.397,16.150 16.150,13.395 16.150,9.995 C16.150,9.463 16.075,8.949 15.948,8.456 C15.948,8.456 17.688,8.456 17.688,8.456 C17.688,8.456 17.688,16.920 17.688,16.920 ZM17.688,5.380 C17.688,5.804 17.343,6.149 16.918,6.149 C16.918,6.149 14.613,6.149 14.613,6.149 C14.188,6.149 13.845,5.804 13.845,5.380 C13.845,5.380 13.845,3.071 13.845,3.071 C13.845,2.646 14.188,2.302 14.613,2.302 C14.613,2.302 16.918,2.302 16.918,2.302 C17.343,2.302 17.688,2.646 17.688,3.071 C17.688,3.071 17.688,5.380 17.688,5.380 Z" id="path-1" class="cls-2" fill-rule="evenodd"/>
</svg>
