<svg xmlns="http://www.w3.org/2000/svg" xmlns:xlink="http://www.w3.org/1999/xlink" preserveAspectRatio="xMidYMid" width="50" height="50" viewBox="0 0 50 50">
  <defs>
    <style>

      .cls-3 {
        fill: #000000;
      }

      .cls-4 {
        fill: #ff6600;
        filter: url(#color-overlay-1);
      }
    </style>

    <filter id="color-overlay-1" filterUnits="userSpaceOnUse">
      <feFlood flood-color="#ffffff" flood-opacity="1"/>
      <feComposite operator="in" in2="SourceGraphic"/>
      <feBlend mode="normal" in2="SourceGraphic" result="colorOverlay"/>
    </filter>
  </defs>
  <g id="header-grafik-logo-iconsvg">
    <rect id="rect-1" class="cls-3" width="50" height="50"/>
    <path d="M25.638,40.966 C22.154,40.966 18.921,39.890 16.248,38.054 C16.248,38.054 16.248,32.569 16.248,32.569 C18.590,34.857 21.920,36.232 25.718,36.232 C29.572,36.232 32.649,34.890 34.997,33.138 C34.997,33.138 34.997,38.077 34.997,38.077 C32.331,39.901 29.109,40.966 25.638,40.966 ZM25.549,26.654 C25.549,26.654 31.073,26.654 31.073,26.654 C31.073,26.654 31.073,30.052 31.073,30.052 C29.480,31.003 27.784,31.477 25.887,31.477 C21.687,31.477 18.152,28.286 18.152,23.941 C18.152,23.941 18.152,23.871 18.152,23.871 C18.152,19.830 21.722,16.467 25.515,16.467 C28.260,16.467 29.885,17.352 31.715,18.880 C31.715,18.880 34.997,15.263 34.997,15.263 C34.997,15.263 34.997,22.140 34.997,22.140 C34.997,22.140 25.549,22.140 25.549,22.140 C25.549,22.140 25.549,26.654 25.549,26.654 ZM16.248,15.514 C16.248,15.514 16.248,10.129 16.248,10.129 C18.921,8.292 22.154,7.215 25.638,7.215 C29.109,7.215 32.331,8.282 34.997,10.103 C34.997,10.103 34.997,15.263 34.997,15.263 C32.526,13.159 29.951,11.652 25.684,11.652 C21.962,11.652 18.612,13.142 16.248,15.514 Z" id="path-1" class="cls-4" fill-rule="evenodd"/>
  </g>
</svg>
