<svg xmlns="http://www.w3.org/2000/svg" xmlns:xlink="http://www.w3.org/1999/xlink" preserveAspectRatio="xMidYMid" width="40" height="40" viewBox="0 0 40 40">
  <defs>
    <style>

      .cls-2 {
        fill: #ffffff;
      }
    </style>
  </defs>
  <path d="M0.000,40.000 C0.000,40.000 0.000,0.000 0.000,0.000 C0.000,0.000 40.000,0.000 40.000,0.000 C40.000,0.000 40.000,40.000 40.000,40.000 C40.000,40.000 0.000,40.000 0.000,40.000 ZM38.000,2.000 C38.000,2.000 2.000,2.000 2.000,2.000 C2.000,2.000 2.000,38.000 2.000,38.000 C2.000,38.000 38.000,38.000 38.000,38.000 C38.000,38.000 38.000,2.000 38.000,2.000 ZM15.000,15.000 C15.000,15.000 10.000,15.000 10.000,15.000 C10.000,15.000 10.000,10.000 10.000,10.000 C10.000,10.000 15.000,10.000 15.000,10.000 C15.000,10.000 15.000,15.000 15.000,15.000 ZM15.000,22.500 C15.000,22.500 10.000,22.500 10.000,22.500 C10.000,22.500 10.000,17.500 10.000,17.500 C10.000,17.500 15.000,17.500 15.000,17.500 C15.000,17.500 15.000,22.500 15.000,22.500 ZM15.000,30.000 C15.000,30.000 10.000,30.000 10.000,30.000 C10.000,30.000 10.000,25.000 10.000,25.000 C10.000,25.000 15.000,25.000 15.000,25.000 C15.000,25.000 15.000,30.000 15.000,30.000 ZM22.500,15.000 C22.500,15.000 17.500,15.000 17.500,15.000 C17.500,15.000 17.500,10.000 17.500,10.000 C17.500,10.000 22.500,10.000 22.500,10.000 C22.500,10.000 22.500,15.000 22.500,15.000 ZM22.500,22.500 C22.500,22.500 17.500,22.500 17.500,22.500 C17.500,22.500 17.500,17.500 17.500,17.500 C17.500,17.500 22.500,17.500 22.500,17.500 C22.500,17.500 22.500,22.500 22.500,22.500 ZM22.500,30.000 C22.500,30.000 17.500,30.000 17.500,30.000 C17.500,30.000 17.500,25.000 17.500,25.000 C17.500,25.000 22.500,25.000 22.500,25.000 C22.500,25.000 22.500,30.000 22.500,30.000 ZM30.000,15.000 C30.000,15.000 25.000,15.000 25.000,15.000 C25.000,15.000 25.000,10.000 25.000,10.000 C25.000,10.000 30.000,10.000 30.000,10.000 C30.000,10.000 30.000,15.000 30.000,15.000 ZM30.000,22.500 C30.000,22.500 25.000,22.500 25.000,22.500 C25.000,22.500 25.000,17.500 25.000,17.500 C25.000,17.500 30.000,17.500 30.000,17.500 C30.000,17.500 30.000,22.500 30.000,22.500 ZM30.000,30.000 C30.000,30.000 25.000,30.000 25.000,30.000 C25.000,30.000 25.000,25.000 25.000,25.000 C25.000,25.000 30.000,25.000 30.000,25.000 C30.000,25.000 30.000,30.000 30.000,30.000 Z" id="path-1" class="cls-2" fill-rule="evenodd"/>
</svg>
