<svg xmlns="http://www.w3.org/2000/svg" xmlns:xlink="http://www.w3.org/1999/xlink" preserveAspectRatio="xMidYMid" width="30.469" height="30" viewBox="0 0 30.469 30">
  <defs>
    <style>
      .cls-1 {
        fill: #fff;
        fill-rule: evenodd;
      }
    </style>
  </defs>
  <path d="M15.234,30.000 C6.820,30.000 -0.000,23.284 -0.000,15.000 C-0.000,6.716 6.820,0.000 15.234,0.000 C23.647,0.000 30.468,6.716 30.468,15.000 C30.468,23.284 23.647,30.000 15.234,30.000 ZM22.919,9.179 C22.919,8.214 22.126,7.433 21.146,7.433 L9.322,7.433 C8.342,7.433 7.548,8.214 7.548,9.179 L7.548,20.821 C7.548,21.785 8.342,22.567 9.322,22.567 L21.146,22.567 C22.126,22.567 22.919,21.785 22.919,20.821 L22.919,9.179 ZM20.555,20.821 L9.914,20.821 C9.586,20.821 9.322,20.560 9.322,20.239 L9.322,13.835 L10.660,13.835 C10.562,14.208 10.505,14.597 10.505,15.000 C10.505,17.572 12.622,19.657 15.234,19.657 C17.846,19.657 19.963,17.572 19.963,15.000 C19.963,14.597 19.906,14.208 19.808,13.835 L21.146,13.835 L21.146,20.239 C21.146,20.560 20.882,20.821 20.555,20.821 ZM20.555,12.089 L18.781,12.089 C18.455,12.089 18.190,11.829 18.190,11.507 L18.190,9.761 C18.190,9.439 18.455,9.179 18.781,9.179 L20.555,9.179 C20.882,9.179 21.146,9.439 21.146,9.761 L21.146,11.507 C21.146,11.829 20.882,12.089 20.555,12.089 ZM15.234,17.911 C13.601,17.911 12.278,16.607 12.278,15.000 C12.278,13.392 13.601,12.089 15.234,12.089 C16.867,12.089 18.190,13.392 18.190,15.000 C18.190,16.607 16.867,17.911 15.234,17.911 Z" class="cls-1"/>
</svg>
