<svg xmlns="http://www.w3.org/2000/svg" xmlns:xlink="http://www.w3.org/1999/xlink" preserveAspectRatio="xMidYMid" width="37.5" height="67.5" viewBox="0 0 37.5 67.5">
  <defs>
    <style>
      .cls-1 {
        fill: #fff;
        filter: url(#color-overlay-1);
        fill-rule: evenodd;
      }
    </style>

    <filter id="color-overlay-1" filterUnits="userSpaceOnUse">
      <feFlood flood-color="#fff"/>
      <feComposite operator="in" in2="SourceGraphic"/>
      <feBlend in2="SourceGraphic" result="solidFill"/>
    </filter>
  </defs>
  <path d="M18.776,67.494 C11.809,67.494 5.342,65.343 -0.005,61.671 L-0.005,50.699 C4.681,55.275 11.341,58.026 18.935,58.026 C26.643,58.026 32.798,55.344 37.494,51.840 L37.494,61.716 C32.163,65.364 25.719,67.494 18.776,67.494 ZM18.597,38.872 L29.645,38.872 L29.645,45.666 C26.459,47.568 23.068,48.518 19.274,48.518 C10.874,48.518 3.804,42.134 3.804,33.444 L3.804,33.305 C3.804,25.224 10.944,18.497 18.529,18.497 C24.020,18.497 27.269,20.265 30.930,23.324 L37.494,16.089 L37.494,29.841 L18.597,29.841 L18.597,38.872 ZM-0.005,16.591 L-0.005,5.820 C5.342,2.145 11.809,-0.006 18.776,-0.006 C25.719,-0.006 32.163,2.127 37.494,5.769 L37.494,16.089 C32.551,11.879 27.402,8.866 18.869,8.866 C11.425,8.866 4.725,11.845 -0.005,16.591 Z" class="cls-1"/>
</svg>
