<svg xmlns="http://www.w3.org/2000/svg" xmlns:xlink="http://www.w3.org/1999/xlink" preserveAspectRatio="xMidYMid" width="60.81" height="59.624" viewBox="0 0 60.81 59.624">
  <defs>
    <style>
      .cls-1 {
        fill: #f60;
        fill-rule: evenodd;
      }
    </style>
  </defs>
  <path d="M30.421,59.626 C13.626,59.626 0.011,46.280 0.011,29.817 C0.011,13.353 13.626,0.007 30.421,0.007 C47.216,0.007 60.830,13.353 60.830,29.817 C60.830,46.280 47.216,59.626 30.421,59.626 ZM30.421,12.821 C20.861,12.821 13.083,20.445 13.083,29.817 C13.083,39.188 20.861,46.812 30.421,46.812 C39.981,46.812 47.758,39.188 47.758,29.817 C47.758,20.445 39.981,12.821 30.421,12.821 ZM38.695,41.873 C38.544,40.990 37.755,36.740 35.818,31.522 C40.459,30.794 44.536,31.986 45.043,32.143 C44.383,36.182 42.017,39.671 38.695,41.873 ZM34.916,29.234 C34.812,28.986 34.706,28.736 34.597,28.485 C34.290,27.777 33.959,27.074 33.615,26.382 C39.090,24.191 41.572,21.073 41.884,20.659 C43.946,23.129 45.195,26.275 45.228,29.701 C44.740,29.600 39.844,28.627 34.916,29.234 ZM32.476,24.224 C30.050,19.853 27.360,16.263 26.950,15.726 C28.064,15.462 29.226,15.322 30.421,15.322 C34.184,15.322 37.623,16.706 40.238,18.980 C39.971,19.352 37.742,22.289 32.476,24.224 ZM15.925,26.866 C16.885,22.361 19.982,18.617 24.125,16.701 C24.515,17.226 27.162,20.821 29.616,25.097 C22.688,26.900 16.587,26.874 15.925,26.866 ZM30.839,27.329 C31.263,28.143 31.668,28.968 32.040,29.793 C31.844,29.847 31.649,29.904 31.456,29.966 C23.819,32.386 19.754,38.982 19.419,39.545 C17.054,36.971 15.612,33.567 15.612,29.839 C15.612,29.690 15.615,29.543 15.619,29.395 C16.267,29.408 23.444,29.499 30.839,27.329 ZM32.949,32.226 C32.981,32.215 33.014,32.204 33.046,32.193 C35.125,37.489 35.985,41.928 36.206,43.202 C34.428,43.944 32.472,44.355 30.421,44.355 C26.997,44.355 23.842,43.210 21.331,41.291 C21.598,40.757 24.596,35.079 32.949,32.226 Z" class="cls-1"/>
</svg>
