<svg xmlns="http://www.w3.org/2000/svg" xmlns:xlink="http://www.w3.org/1999/xlink" preserveAspectRatio="xMidYMid" width="60.84" height="59.624" viewBox="0 0 60.84 59.624">
  <defs>
    <style>
      .cls-1 {
        fill: #f60;
        fill-rule: evenodd;
      }
    </style>
  </defs>
  <path d="M30.424,0.007 C13.629,0.007 0.014,13.353 0.014,29.817 C0.014,46.280 13.629,59.626 30.424,59.626 C47.218,59.626 60.833,46.280 60.833,29.817 C60.833,13.353 47.218,0.007 30.424,0.007 ZM34.108,45.629 C27.080,45.747 24.416,40.720 24.416,37.183 L24.416,26.848 L21.151,26.848 L21.151,22.762 C26.046,21.033 27.223,16.705 27.500,14.239 C27.519,14.069 27.654,14.002 27.732,14.002 C27.809,14.002 32.458,14.002 32.458,14.002 L32.458,22.060 L38.914,22.060 L38.914,26.848 L32.435,26.848 L32.435,36.693 C32.457,38.034 32.957,39.880 35.540,39.812 C36.396,39.790 37.543,39.546 38.143,39.266 L39.695,43.777 C39.113,44.616 36.480,45.589 34.108,45.629 Z" class="cls-1"/>
</svg>
