<svg xmlns="http://www.w3.org/2000/svg" xmlns:xlink="http://www.w3.org/1999/xlink" preserveAspectRatio="xMidYMid" width="60.15" height="59.625" viewBox="0 0 60.15 59.625">
  <defs>
    <style>
      .cls-1 {
        fill: #f60;
        fill-rule: evenodd;
      }
    </style>
  </defs>
  <path d="M30.063,0.006 C13.450,0.006 -0.017,13.352 -0.017,29.816 C-0.017,46.279 13.450,59.625 30.063,59.625 C46.675,59.625 60.142,46.279 60.142,29.816 C60.142,13.352 46.675,0.006 30.063,0.006 ZM39.127,36.452 C34.846,41.977 31.225,44.739 28.263,44.739 C26.428,44.739 24.874,43.057 23.606,39.692 C22.759,36.608 21.912,33.524 21.065,30.440 C20.123,27.077 19.112,25.393 18.032,25.393 C17.797,25.393 16.972,25.886 15.562,26.866 L14.080,24.971 C15.634,23.616 17.167,22.260 18.674,20.903 C20.747,19.125 22.302,18.190 23.339,18.095 C25.790,17.862 27.297,19.525 27.864,23.084 C28.475,26.925 28.898,29.314 29.137,30.249 C29.843,33.436 30.620,35.027 31.469,35.027 C32.128,35.027 33.117,33.994 34.437,31.927 C35.755,29.860 36.462,28.287 36.557,27.206 C36.745,25.422 36.038,24.528 34.437,24.528 C33.683,24.528 32.906,24.700 32.107,25.041 C33.654,20.008 36.610,17.564 40.974,17.704 C44.209,17.798 45.734,19.881 45.547,23.954 C45.407,26.997 43.267,31.164 39.127,36.452 Z" class="cls-1"/>
</svg>
