<svg xmlns="http://www.w3.org/2000/svg" xmlns:xlink="http://www.w3.org/1999/xlink" preserveAspectRatio="xMidYMid" width="60.16" height="59.625" viewBox="0 0 60.16 59.625">
  <defs>
    <style>
      .cls-1 {
        fill: #f60;
        fill-rule: evenodd;
      }
    </style>
  </defs>
  <path d="M0.000,29.810 C0.000,13.346 13.467,-0.000 30.080,-0.000 C46.692,-0.000 60.158,13.346 60.158,29.810 C60.158,46.273 46.692,59.619 30.080,59.619 C13.467,59.619 0.000,46.273 0.000,29.810 ZM46.246,20.428 C45.081,20.940 43.829,21.285 42.517,21.441 C43.857,20.645 44.886,19.385 45.371,17.881 C44.117,18.619 42.728,19.154 41.248,19.442 C40.065,18.192 38.378,17.412 36.511,17.412 C32.926,17.412 30.020,20.291 30.020,23.845 C30.020,24.348 30.076,24.839 30.188,25.311 C24.793,25.043 20.010,22.481 16.809,18.589 C16.249,19.539 15.929,20.644 15.929,21.823 C15.929,24.055 17.075,26.024 18.817,27.178 C17.754,27.144 16.753,26.855 15.878,26.373 C15.878,26.400 15.878,26.427 15.878,26.454 C15.878,29.571 18.113,32.170 21.083,32.761 C20.540,32.909 19.965,32.988 19.373,32.988 C18.954,32.988 18.548,32.947 18.152,32.872 C18.979,35.428 21.375,37.288 24.216,37.340 C21.993,39.065 19.195,40.094 16.154,40.094 C15.630,40.094 15.114,40.063 14.605,40.004 C17.478,41.829 20.891,42.893 24.556,42.893 C36.496,42.893 43.024,33.091 43.024,24.590 C43.024,24.311 43.019,24.034 43.007,23.757 C44.274,22.851 45.375,21.718 46.246,20.428 Z" class="cls-1"/>
</svg>
