<svg xmlns="http://www.w3.org/2000/svg" xmlns:xlink="http://www.w3.org/1999/xlink" preserveAspectRatio="xMidYMid" width="30" height="30" viewBox="0 0 30 30">
  <defs>
    <style>
      .cls-1 {
        fill: #666;
        fill-rule: evenodd;
      }
    </style>
  </defs>
  <path d="M16.864,26.272 C13.885,26.272 11.147,25.269 8.943,23.598 C8.898,23.653 8.877,23.721 8.825,23.773 L3.192,29.417 C2.450,30.162 1.265,30.181 0.546,29.460 C-0.172,28.739 -0.153,27.550 0.589,26.805 L6.222,21.160 C6.273,21.109 6.339,21.089 6.393,21.045 C4.728,18.843 3.728,16.110 3.728,13.136 C3.728,5.881 9.609,0.000 16.864,0.000 C24.119,0.000 30.000,5.881 30.000,13.136 C30.000,20.391 24.119,26.272 16.864,26.272 ZM16.893,3.738 C11.719,3.738 7.524,7.933 7.524,13.107 C7.524,18.281 11.719,22.476 16.893,22.476 C22.067,22.476 26.262,18.281 26.262,13.107 C26.262,7.933 22.067,3.738 16.893,3.738 Z" class="cls-1"/>
</svg>
