<svg xmlns="http://www.w3.org/2000/svg" xmlns:xlink="http://www.w3.org/1999/xlink" preserveAspectRatio="xMidYMid" width="60.81" height="59.624" viewBox="0 0 60.81 59.624">
  <defs>
    <style>
      .cls-1 {
        fill: #fff;
        fill-rule: evenodd;
      }
    </style>
  </defs>
  <path d="M30.410,59.626 C13.615,59.626 0.000,46.280 0.000,29.817 C0.000,13.353 13.615,0.007 30.410,0.007 C47.205,0.007 60.819,13.353 60.819,29.817 C60.819,46.280 47.205,59.626 30.410,59.626 ZM45.751,18.248 C45.751,16.331 44.167,14.778 42.212,14.778 L18.608,14.778 C16.653,14.778 15.068,16.331 15.068,18.248 L15.068,41.384 C15.068,43.301 16.653,44.855 18.608,44.855 L42.212,44.855 C44.167,44.855 45.751,43.301 45.751,41.384 L45.751,18.248 ZM41.030,41.384 L19.789,41.384 C19.136,41.384 18.608,40.866 18.608,40.228 L18.608,27.502 L21.279,27.502 C21.084,28.242 20.969,29.016 20.969,29.816 C20.969,34.928 25.196,39.071 30.410,39.071 C35.624,39.071 39.850,34.928 39.850,29.816 C39.850,29.016 39.735,28.242 39.541,27.502 L42.212,27.502 L42.212,40.228 C42.212,40.866 41.683,41.384 41.030,41.384 ZM41.030,24.032 L37.491,24.032 C36.839,24.032 36.311,23.514 36.311,22.875 L36.311,19.404 C36.311,18.766 36.839,18.248 37.491,18.248 L41.030,18.248 C41.683,18.248 42.212,18.766 42.212,19.404 L42.212,22.875 C42.212,23.514 41.683,24.032 41.030,24.032 ZM30.410,35.601 C27.150,35.601 24.509,33.010 24.509,29.816 C24.509,26.621 27.150,24.032 30.410,24.032 C33.669,24.032 36.311,26.621 36.311,29.816 C36.311,33.010 33.669,35.601 30.410,35.601 Z" class="cls-1"/>
</svg>
