<svg xmlns="http://www.w3.org/2000/svg" xmlns:xlink="http://www.w3.org/1999/xlink" preserveAspectRatio="xMidYMid" width="20" height="20" viewBox="0 0 20 20">
  <defs>
    <style>
      .cls-1 {
        fill: #666;
        fill-rule: evenodd;
      }
    </style>
  </defs>
  <path d="M11.243,17.515 C9.256,17.515 7.431,16.846 5.962,15.732 C5.932,15.769 5.918,15.814 5.884,15.848 L2.128,19.612 C1.633,20.108 0.843,20.121 0.364,19.640 C-0.115,19.159 -0.102,18.367 0.393,17.870 L4.148,14.107 C4.182,14.073 4.226,14.059 4.262,14.030 C3.152,12.562 2.485,10.740 2.485,8.757 C2.485,3.921 6.406,0.000 11.243,0.000 C16.079,0.000 20.000,3.921 20.000,8.757 C20.000,13.594 16.079,17.515 11.243,17.515 ZM11.262,2.492 C7.812,2.492 5.016,5.289 5.016,8.738 C5.016,12.187 7.812,14.984 11.262,14.984 C14.711,14.984 17.508,12.187 17.508,8.738 C17.508,5.289 14.711,2.492 11.262,2.492 Z" class="cls-1"/>
</svg>
