<svg xmlns="http://www.w3.org/2000/svg" xmlns:xlink="http://www.w3.org/1999/xlink" preserveAspectRatio="xMidYMid" width="60.16" height="59.625" viewBox="0 0 60.16 59.625">
  <defs>
    <style>
      .cls-1 {
        fill: #f60;
        fill-rule: evenodd;
      }
    </style>
  </defs>
  <path d="M-0.005,29.810 C-0.005,13.346 13.461,-0.000 30.074,-0.000 C46.686,-0.000 60.153,13.346 60.153,29.810 C60.153,46.273 46.686,59.619 30.074,59.619 C13.461,59.619 -0.005,46.273 -0.005,29.810 ZM38.781,25.052 L31.952,25.052 C31.952,22.442 31.952,21.271 31.952,20.789 C31.952,20.785 31.952,20.710 31.952,20.497 C31.952,18.778 32.316,17.741 34.584,17.741 C36.681,17.741 38.602,17.760 38.602,17.760 L38.750,11.935 C38.750,11.935 36.867,11.693 34.318,11.693 C28.028,11.693 25.298,15.538 25.298,19.723 C25.298,22.495 25.298,25.052 25.298,25.052 L20.675,25.052 L20.675,31.289 L25.298,31.289 L25.298,48.613 L31.952,48.613 L31.952,31.289 L38.484,31.289 L38.781,25.052 Z" class="cls-1"/>
</svg>
