<svg xmlns="http://www.w3.org/2000/svg" xmlns:xlink="http://www.w3.org/1999/xlink" preserveAspectRatio="xMidYMid" width="30.12" height="30" viewBox="0 0 30.12 30">
  <defs>
    <style>
      .cls-1 {
        fill: #fff;
        fill-rule: evenodd;
      }
    </style>
  </defs>
  <path d="M15.052,0.000 C6.729,0.000 -0.017,6.716 -0.017,15.000 C-0.017,23.284 6.729,30.000 15.052,30.000 C23.374,30.000 30.120,23.284 30.120,15.000 C30.120,6.716 23.374,0.000 15.052,0.000 ZM19.593,18.340 C17.448,21.119 15.634,22.509 14.150,22.509 C13.231,22.509 12.452,21.663 11.817,19.970 C11.393,18.418 10.968,16.866 10.544,15.314 C10.072,13.622 9.566,12.775 9.025,12.775 C8.907,12.775 8.494,13.023 7.787,13.516 L7.045,12.562 C7.823,11.880 8.591,11.198 9.347,10.515 C10.385,9.621 11.164,9.150 11.683,9.103 C12.911,8.985 13.667,9.822 13.950,11.613 C14.256,13.546 14.468,14.748 14.588,15.218 C14.942,16.822 15.331,17.622 15.756,17.622 C16.086,17.622 16.582,17.102 17.243,16.062 C17.904,15.022 18.257,14.231 18.305,13.687 C18.399,12.789 18.045,12.340 17.243,12.340 C16.865,12.340 16.476,12.426 16.076,12.597 C16.851,10.065 18.332,8.835 20.518,8.906 C22.138,8.953 22.902,10.001 22.809,12.051 C22.739,13.582 21.666,15.679 19.593,18.340 Z" class="cls-1"/>
</svg>
