<svg xmlns="http://www.w3.org/2000/svg" xmlns:xlink="http://www.w3.org/1999/xlink" preserveAspectRatio="xMidYMid" width="40" height="40" viewBox="0 0 40 40">
  <defs>
    <style>

      .cls-2 {
        fill: #000000;
      }
    </style>
  </defs>
  <path d="M20.004,-0.001 C8.955,-0.001 -0.002,8.952 -0.002,19.995 C-0.002,31.038 8.955,39.991 20.004,39.991 C31.053,39.991 40.009,31.038 40.009,19.995 C40.009,8.952 31.053,-0.001 20.004,-0.001 ZM22.600,27.997 C20.883,27.997 19.269,27.070 18.716,26.017 C18.716,26.017 17.793,29.678 17.598,30.384 C16.910,32.881 14.885,35.380 14.728,35.584 C14.618,35.727 14.376,35.682 14.350,35.494 C14.306,35.176 13.790,32.025 14.398,29.455 C14.703,28.165 16.443,20.797 16.443,20.797 C16.443,20.797 15.936,19.782 15.936,18.282 C15.936,15.927 17.301,14.169 19.001,14.169 C20.447,14.169 21.145,15.254 21.145,16.555 C21.145,18.007 20.220,20.180 19.742,22.193 C19.343,23.879 20.588,25.254 22.251,25.254 C25.263,25.254 27.292,21.387 27.292,16.805 C27.292,13.323 24.946,10.716 20.677,10.716 C15.855,10.716 12.849,14.311 12.849,18.327 C12.849,19.711 13.258,20.688 13.899,21.443 C14.193,21.790 14.234,21.930 14.127,22.328 C14.050,22.621 13.876,23.324 13.803,23.603 C13.697,24.006 13.371,24.150 13.007,24.001 C10.786,23.095 9.751,20.664 9.751,17.931 C9.751,13.417 13.560,8.004 21.113,8.004 C27.184,8.004 31.178,12.394 31.178,17.107 C31.178,23.341 27.710,27.997 22.600,27.997 Z" id="path-1" class="cls-2" fill-rule="evenodd"/>
</svg>
