<svg xmlns="http://www.w3.org/2000/svg" xmlns:xlink="http://www.w3.org/1999/xlink" preserveAspectRatio="xMidYMid" width="40" height="40" viewBox="0 0 40 40">
  <defs>
    <style>

      .cls-2 {
        fill: #000000;
      }
    </style>
  </defs>
  <path d="M-0.002,19.995 C-0.002,8.952 8.955,-0.001 20.004,-0.001 C31.053,-0.001 40.009,8.952 40.009,19.995 C40.009,31.038 31.053,39.991 20.004,39.991 C8.955,39.991 -0.002,31.038 -0.002,19.995 ZM30.756,13.702 C29.982,14.045 29.149,14.277 28.276,14.381 C29.168,13.848 29.852,13.002 30.175,11.994 C29.340,12.488 28.417,12.847 27.432,13.041 C26.645,12.202 25.524,11.679 24.282,11.679 C21.898,11.679 19.964,13.610 19.964,15.994 C19.964,16.332 20.002,16.661 20.076,16.977 C16.488,16.798 13.307,15.079 11.178,12.468 C10.805,13.106 10.593,13.847 10.593,14.638 C10.593,16.135 11.355,17.456 12.514,18.230 C11.806,18.207 11.141,18.013 10.559,17.690 C10.559,17.708 10.559,17.726 10.559,17.744 C10.559,19.835 12.045,21.579 14.021,21.975 C13.659,22.074 13.277,22.127 12.883,22.127 C12.605,22.127 12.335,22.099 12.071,22.049 C12.621,23.764 14.215,25.011 16.104,25.046 C14.626,26.204 12.765,26.894 10.743,26.894 C10.394,26.894 10.051,26.873 9.712,26.833 C11.623,28.057 13.893,28.771 16.331,28.771 C24.272,28.771 28.614,22.196 28.614,16.494 C28.614,16.307 28.610,16.121 28.602,15.935 C29.445,15.327 30.177,14.567 30.756,13.702 Z" id="path-1" class="cls-2" fill-rule="evenodd"/>
</svg>
