<svg xmlns="http://www.w3.org/2000/svg" xmlns:xlink="http://www.w3.org/1999/xlink" preserveAspectRatio="xMidYMid" width="40" height="40" viewBox="0 0 40 40">
  <defs>
    <style>
      .cls-1 {
        fill: #f60;
        fill-rule: evenodd;
      }
    </style>
  </defs>
  <path d="M20.000,40.000 C8.954,40.000 0.000,31.046 0.000,20.000 C0.000,8.954 8.954,0.000 20.000,0.000 C31.046,0.000 40.000,8.954 40.000,20.000 C40.000,31.046 31.046,40.000 20.000,40.000 ZM31.583,12.277 C31.583,11.633 31.061,11.111 30.417,11.111 L9.583,11.111 C8.939,11.111 8.417,11.633 8.417,12.277 L8.417,27.723 C8.417,28.367 8.939,28.889 9.583,28.889 L30.417,28.889 C31.061,28.889 31.583,28.367 31.583,27.723 L31.583,12.277 ZM10.750,14.594 L19.305,20.937 C19.512,21.090 19.756,21.167 20.000,21.167 C20.244,21.167 20.488,21.090 20.695,20.937 L29.250,14.594 L29.250,26.556 L10.750,26.556 L10.750,14.594 ZM13.116,13.444 L26.884,13.444 L20.000,18.548 L13.116,13.444 Z" class="cls-1"/>
</svg>
