<svg xmlns="http://www.w3.org/2000/svg" xmlns:xlink="http://www.w3.org/1999/xlink" preserveAspectRatio="xMidYMid" width="40" height="40" viewBox="0 0 40 40">
  <defs>
    <style>
      .cls-1 {
        fill: #000;
        fill-rule: evenodd;
      }
    </style>
  </defs>
  <path d="M20.000,40.000 C8.954,40.000 0.000,31.046 0.000,20.000 C0.000,8.954 8.954,0.000 20.000,0.000 C31.046,0.000 40.000,8.954 40.000,20.000 C40.000,31.046 31.046,40.000 20.000,40.000 ZM19.760,7.879 C18.072,7.879 15.640,8.278 13.859,9.748 C12.517,10.906 11.862,12.503 11.862,13.941 C11.862,16.380 13.735,18.854 17.044,18.854 C17.356,18.854 17.697,18.823 18.042,18.791 C17.887,19.166 17.731,19.480 17.731,20.010 C17.731,20.980 18.229,21.575 18.668,22.137 C17.263,22.234 14.638,22.389 12.704,23.578 C10.862,24.674 10.301,26.269 10.301,27.395 C10.301,29.711 12.484,31.869 17.012,31.869 C22.382,31.869 25.224,28.898 25.224,25.957 C25.224,23.796 23.975,22.732 22.601,21.575 L21.476,20.701 C21.134,20.417 20.665,20.041 20.665,19.355 C20.665,18.666 21.134,18.228 21.541,17.821 C22.851,16.790 24.160,15.692 24.160,13.379 C24.160,11.000 22.664,9.748 21.946,9.154 L23.881,9.154 L25.911,7.879 L19.760,7.879 ZM33.623,17.929 L30.486,17.929 L30.486,14.801 L28.940,14.801 L28.940,17.929 L25.818,17.929 L25.818,19.491 L28.940,19.491 L28.940,22.638 L30.486,22.638 L30.486,19.491 L33.623,19.491 L33.623,17.929 ZM18.512,17.976 C15.826,17.976 14.609,14.505 14.609,12.409 C14.609,11.594 14.763,10.751 15.295,10.094 C15.795,9.467 16.668,9.061 17.482,9.061 C20.072,9.061 21.414,12.564 21.414,14.817 C21.414,15.381 21.353,16.380 20.634,17.102 C20.133,17.603 19.292,17.976 18.512,17.976 ZM19.728,23.046 C22.103,24.736 23.133,25.578 23.133,27.177 C23.133,29.115 21.541,30.557 18.543,30.557 C15.203,30.557 13.049,28.959 13.049,26.738 C13.049,24.517 15.046,23.766 15.733,23.517 C17.044,23.076 18.730,23.014 19.011,23.014 C19.324,23.014 19.480,23.014 19.728,23.046 Z" class="cls-1"/>
</svg>
