<svg xmlns="http://www.w3.org/2000/svg" xmlns:xlink="http://www.w3.org/1999/xlink" preserveAspectRatio="xMidYMid" width="40" height="40" viewBox="0 0 40 40">
  <defs>
    <style>
      .cls-1 {
        fill: #f60;
        fill-rule: evenodd;
      }
    </style>
  </defs>
  <path d="M20.000,40.000 C8.954,40.000 0.000,31.046 0.000,20.000 C0.000,8.954 8.954,0.000 20.000,0.000 C31.046,0.000 40.000,8.954 40.000,20.000 C40.000,31.046 31.046,40.000 20.000,40.000 ZM9.821,29.219 L14.298,29.219 L14.298,15.748 L9.821,15.748 L9.821,29.219 ZM12.089,9.253 C10.558,9.253 9.556,10.260 9.556,11.581 C9.556,12.873 10.528,13.909 12.031,13.909 L12.059,13.909 C13.620,13.909 14.592,12.873 14.592,11.581 C14.563,10.260 13.620,9.253 12.089,9.253 ZM30.444,21.494 C30.444,17.356 28.235,15.432 25.289,15.432 C22.910,15.432 21.848,16.739 21.254,17.657 L21.254,15.748 L16.776,15.748 C16.835,17.011 16.776,29.219 16.776,29.219 L21.254,29.219 L21.254,21.696 C21.254,21.293 21.283,20.891 21.401,20.603 C21.725,19.799 22.461,18.965 23.698,18.965 C25.319,18.965 25.967,20.201 25.967,22.012 L25.967,29.219 L30.444,29.219 L30.444,21.494 ZM21.224,17.701 C21.233,17.687 21.245,17.671 21.254,17.657 L21.254,17.701 L21.224,17.701 Z" class="cls-1"/>
</svg>
