<svg xmlns="http://www.w3.org/2000/svg" xmlns:xlink="http://www.w3.org/1999/xlink" preserveAspectRatio="xMidYMid" width="40" height="40" viewBox="0 0 40 40">
  <defs>
    <style>

      .cls-2 {
        fill: #000000;
      }
    </style>
  </defs>
  <path d="M20.004,39.991 C8.955,39.991 -0.002,31.038 -0.002,19.995 C-0.002,8.952 8.955,-0.001 20.004,-0.001 C31.053,-0.001 40.009,8.952 40.009,19.995 C40.009,31.038 31.053,39.991 20.004,39.991 ZM19.764,7.877 C18.076,7.877 15.642,8.276 13.862,9.746 C12.519,10.903 11.864,12.499 11.864,13.937 C11.864,16.376 13.737,18.849 17.047,18.849 C17.359,18.849 17.701,18.818 18.046,18.786 C17.890,19.161 17.734,19.475 17.734,20.006 C17.734,20.975 18.232,21.569 18.672,22.132 C17.266,22.229 14.641,22.384 12.705,23.573 C10.863,24.668 10.302,26.263 10.302,27.388 C10.302,29.704 12.486,31.861 17.015,31.861 C22.386,31.861 25.229,28.891 25.229,25.950 C25.229,23.790 23.980,22.726 22.606,21.569 C22.606,21.569 21.481,20.696 21.481,20.696 C21.138,20.412 20.669,20.037 20.669,19.350 C20.669,18.661 21.138,18.223 21.545,17.817 C22.856,16.786 24.165,15.688 24.165,13.375 C24.165,10.997 22.669,9.746 21.951,9.152 C21.951,9.152 23.886,9.152 23.886,9.152 C23.886,9.152 25.917,7.877 25.917,7.877 C25.917,7.877 19.764,7.877 19.764,7.877 ZM33.631,17.925 C33.631,17.925 30.492,17.925 30.492,17.925 C30.492,17.925 30.492,14.797 30.492,14.797 C30.492,14.797 28.947,14.797 28.947,14.797 C28.947,14.797 28.947,17.925 28.947,17.925 C28.947,17.925 25.823,17.925 25.823,17.925 C25.823,17.925 25.823,19.486 25.823,19.486 C25.823,19.486 28.947,19.486 28.947,19.486 C28.947,19.486 28.947,22.633 28.947,22.633 C28.947,22.633 30.492,22.633 30.492,22.633 C30.492,22.633 30.492,19.486 30.492,19.486 C30.492,19.486 33.631,19.486 33.631,19.486 C33.631,19.486 33.631,17.925 33.631,17.925 ZM18.515,17.972 C15.828,17.972 14.612,14.501 14.612,12.406 C14.612,11.590 14.766,10.748 15.298,10.091 C15.798,9.465 16.671,9.058 17.485,9.058 C20.076,9.058 21.419,12.560 21.419,14.814 C21.419,15.377 21.357,16.376 20.638,17.098 C20.137,17.599 19.296,17.972 18.515,17.972 ZM19.732,23.040 C22.107,24.730 23.138,25.572 23.138,27.171 C23.138,29.108 21.545,30.550 18.546,30.550 C15.205,30.550 13.051,28.952 13.051,26.732 C13.051,24.511 15.049,23.760 15.736,23.511 C17.047,23.070 18.734,23.008 19.015,23.008 C19.327,23.008 19.484,23.008 19.732,23.040 Z" id="path-1" class="cls-2" fill-rule="evenodd"/>
</svg>
