<svg xmlns="http://www.w3.org/2000/svg" xmlns:xlink="http://www.w3.org/1999/xlink" preserveAspectRatio="xMidYMid" width="40" height="40" viewBox="0 0 40 40">
  <defs>
    <style>

      .cls-2 {
        fill: #e6e6e6;
      }
    </style>
  </defs>
  <path d="M20.004,-0.001 C8.955,-0.001 -0.002,8.952 -0.002,19.995 C-0.002,31.038 8.955,39.991 20.004,39.991 C31.053,39.991 40.009,31.038 40.009,19.995 C40.009,8.952 31.053,-0.001 20.004,-0.001 ZM29.665,22.304 C29.665,22.304 22.350,22.304 22.350,22.304 C22.350,22.304 22.350,29.652 22.350,29.652 C22.350,29.652 17.658,29.652 17.658,29.652 C17.658,29.652 17.658,22.304 17.658,22.304 C17.658,22.304 10.342,22.304 10.342,22.304 C10.342,22.304 10.342,17.650 10.342,17.650 C10.342,17.650 17.658,17.650 17.658,17.650 C17.658,17.650 17.658,10.338 17.658,10.338 C17.658,10.338 22.350,10.338 22.350,10.338 C22.350,10.338 22.350,17.650 22.350,17.650 C22.350,17.650 29.665,17.650 29.665,17.650 C29.665,17.650 29.665,22.304 29.665,22.304 Z" id="path-1" class="cls-2" fill-rule="evenodd"/>
</svg>
