<svg xmlns="http://www.w3.org/2000/svg" xmlns:xlink="http://www.w3.org/1999/xlink" preserveAspectRatio="xMidYMid" width="60" height="60" viewBox="0 0 60 60">
  <defs>
    <style>

      .cls-2 {
        fill: #ffffff;
      }
    </style>
  </defs>
  <path d="M-0.002,29.993 C-0.002,13.427 13.433,-0.001 30.006,-0.001 C46.579,-0.001 60.014,13.427 60.014,29.993 C60.014,46.558 46.579,59.986 30.006,59.986 C13.433,59.986 -0.002,46.558 -0.002,29.993 ZM46.134,20.553 C44.972,21.068 43.723,21.416 42.414,21.572 C43.751,20.771 44.777,19.503 45.262,17.991 C44.010,18.733 42.625,19.271 41.149,19.561 C39.968,18.304 38.285,17.519 36.423,17.519 C32.846,17.519 29.946,20.415 29.946,23.991 C29.946,24.498 30.003,24.991 30.114,25.466 C24.732,25.196 19.960,22.619 16.767,18.703 C16.208,19.659 15.889,20.770 15.889,21.957 C15.889,24.203 17.032,26.183 18.770,27.345 C17.710,27.311 16.711,27.020 15.838,26.535 C15.838,26.562 15.838,26.589 15.838,26.616 C15.838,29.752 18.068,32.368 21.031,32.963 C20.489,33.111 19.915,33.190 19.325,33.190 C18.907,33.190 18.502,33.149 18.107,33.074 C18.932,35.646 21.323,37.517 24.156,37.569 C21.938,39.305 19.147,40.340 16.114,40.340 C15.590,40.340 15.076,40.309 14.568,40.249 C17.434,42.086 20.839,43.157 24.496,43.157 C36.408,43.157 42.920,33.294 42.920,24.741 C42.920,24.460 42.915,24.181 42.903,23.903 C44.167,22.991 45.266,21.851 46.134,20.553 Z" id="path-1" class="cls-2" fill-rule="evenodd"/>
</svg>
