<svg xmlns="http://www.w3.org/2000/svg" xmlns:xlink="http://www.w3.org/1999/xlink" preserveAspectRatio="xMidYMid" width="110" height="111.12" viewBox="0 0 55 55.56">
  <defs>
    <style>
      .cls-1 {
        fill: #292929;
      }

      .cls-1, .cls-2 {
        fill-rule: evenodd;
      }

      .cls-2 {
        fill: #ccc;
      }
    </style>
  </defs>
  <g>
    <path d="M-0.002,55.564 L55.000,55.564 L55.000,0.001 L-0.002,0.001 L-0.002,55.564 L-0.002,55.564 Z" class="cls-1"/>
    <path d="M48.178,46.638 L45.218,39.782 L47.281,37.798 L51.228,46.638 L48.178,46.638 ZM42.975,34.550 L41.719,37.708 L38.758,37.708 L42.975,28.145 L47.281,37.708 L44.320,37.708 L42.975,34.550 ZM40.822,39.782 L39.296,43.391 L42.975,41.406 L45.128,43.030 L37.771,46.638 L34.811,46.638 L38.758,37.798 L40.822,39.782 ZM33.106,41.586 C33.106,45.466 30.056,47.089 26.557,46.999 C25.301,46.909 24.135,46.638 22.789,46.187 L23.058,43.391 C24.224,43.841 25.660,44.383 26.826,44.383 C28.441,44.293 30.056,43.571 30.056,41.767 C30.056,40.324 28.890,39.602 27.813,39.061 C25.391,37.798 22.610,36.986 22.610,33.558 C22.610,30.310 25.211,28.597 28.351,28.597 C29.518,28.597 30.953,28.777 32.299,29.318 L31.850,32.025 C30.415,31.393 29.697,31.213 28.441,31.213 C27.095,31.213 25.660,31.754 25.660,33.288 C25.660,34.550 26.916,35.182 27.903,35.723 C30.504,36.986 33.106,38.068 33.106,41.586 ZM3.770,37.708 C3.770,32.205 7.807,28.597 13.190,28.597 C15.702,28.597 16.868,28.957 18.483,29.499 L18.214,32.566 C16.778,31.573 15.432,31.213 13.279,31.213 C9.422,31.213 6.910,34.009 6.910,37.798 C6.910,41.857 9.691,44.383 13.190,44.383 C14.176,44.383 15.074,44.293 15.702,44.112 L15.702,39.512 L12.382,39.512 L12.382,36.896 L18.662,36.896 L18.662,46.187 C17.586,46.548 15.881,46.999 13.100,46.999 C7.538,46.999 3.770,43.391 3.770,37.708 Z" class="cls-2"/>
  </g>
</svg>
