<svg xmlns="http://www.w3.org/2000/svg" xmlns:xlink="http://www.w3.org/1999/xlink" preserveAspectRatio="xMidYMid" width="20" height="40" viewBox="0 0 10 20">
  <defs>
    <style>
      .cls-1 {
        fill: #fff;
        fill-rule: evenodd;
      }
    </style>
  </defs>
  <path d="M9.998,7.238 L6.230,7.238 C6.230,5.824 6.230,5.189 6.230,4.928 C6.230,4.926 6.230,4.885 6.230,4.769 C6.230,3.838 6.431,3.276 7.682,3.276 C8.839,3.276 9.899,3.286 9.899,3.286 L9.981,0.129 C9.981,0.129 8.942,-0.002 7.536,-0.002 C4.065,-0.002 2.558,2.082 2.558,4.350 C2.558,5.853 2.558,7.238 2.558,7.238 L0.007,7.238 L0.007,10.618 L2.558,10.618 L2.558,20.008 L6.230,20.008 L6.230,10.618 L9.834,10.618 L9.998,7.238 Z" class="cls-1"/>
</svg>
