<svg xmlns="http://www.w3.org/2000/svg" xmlns:xlink="http://www.w3.org/1999/xlink" preserveAspectRatio="xMidYMid" width="40" height="38" viewBox="0 0 20 19">
  <defs>
    <style>
      .cls-1 {
        fill: #fff;
        fill-rule: evenodd;
      }
    </style>
  </defs>
  <path d="M11.172,8.033 C11.181,8.019 11.192,8.004 11.201,7.991 L11.201,8.033 L11.172,8.033 ZM4.538,6.174 L0.250,6.174 L0.250,18.999 L4.538,18.999 L4.538,6.174 ZM4.820,2.207 C4.792,0.949 3.889,-0.009 2.422,-0.009 C0.955,-0.009 -0.004,0.949 -0.004,2.207 C-0.004,3.437 0.926,4.423 2.366,4.423 L2.393,4.423 C3.889,4.423 4.820,3.437 4.820,2.207 ZM20.003,11.645 C20.003,7.705 17.888,5.872 15.065,5.872 C12.787,5.872 11.770,7.117 11.201,7.991 L11.201,6.174 L6.911,6.174 C6.968,7.377 6.911,18.999 6.911,18.999 L11.201,18.999 L11.201,11.836 C11.201,11.453 11.229,11.071 11.342,10.797 C11.652,10.030 12.357,9.237 13.542,9.237 C15.095,9.237 15.715,10.414 15.715,12.137 L15.715,18.999 L20.003,18.999 L20.003,11.645 Z" class="cls-1"/>
</svg>
