<svg xmlns="http://www.w3.org/2000/svg" xmlns:xlink="http://www.w3.org/1999/xlink" preserveAspectRatio="xMidYMid" width="38" height="40" viewBox="0 0 19 20">
  <defs>
    <style>
      .cls-1 {
        fill: #fff;
        fill-rule: evenodd;
      }
    </style>
  </defs>
  <path d="M19.005,9.681 L16.447,9.681 L16.447,12.303 L15.187,12.303 L15.187,9.681 L12.641,9.681 L12.641,8.380 L15.187,8.380 L15.187,5.774 L16.447,5.774 L16.447,8.380 L19.005,8.380 L19.005,9.681 ZM12.157,15.068 C12.157,17.519 9.840,19.994 5.463,19.994 C1.772,19.994 -0.008,18.196 -0.008,16.266 C-0.008,15.328 0.449,14.000 1.951,13.087 C3.528,12.096 5.667,11.967 6.813,11.886 C6.455,11.417 6.049,10.922 6.049,10.114 C6.049,9.672 6.176,9.411 6.303,9.098 C6.022,9.124 5.743,9.150 5.489,9.150 C2.791,9.150 1.265,7.090 1.265,5.057 C1.265,3.859 1.798,2.529 2.893,1.565 C4.344,0.340 6.327,0.006 7.703,0.006 L12.718,0.006 L11.062,1.070 L9.485,1.070 C10.070,1.565 11.290,2.607 11.290,4.589 C11.290,6.516 10.223,7.431 9.155,8.290 C8.823,8.629 8.441,8.994 8.441,9.568 C8.441,10.140 8.823,10.453 9.102,10.689 L10.019,11.417 C11.139,12.382 12.157,13.268 12.157,15.068 ZM8.416,7.691 C9.001,7.090 9.052,6.257 9.052,5.788 C9.052,3.910 7.958,0.991 5.846,0.991 C5.182,0.991 4.471,1.330 4.063,1.852 C3.630,2.400 3.504,3.101 3.504,3.781 C3.504,5.527 4.496,8.419 6.686,8.419 C7.322,8.419 8.007,8.109 8.416,7.691 ZM10.453,16.085 C10.453,14.752 9.613,14.051 7.677,12.643 C7.475,12.617 7.347,12.617 7.092,12.617 C6.863,12.617 5.489,12.668 4.420,13.035 C3.860,13.243 2.232,13.869 2.232,15.720 C2.232,17.570 3.988,18.901 6.711,18.901 C9.155,18.901 10.453,17.699 10.453,16.085 Z" class="cls-1"/>
</svg>
