<svg xmlns="http://www.w3.org/2000/svg" xmlns:xlink="http://www.w3.org/1999/xlink" preserveAspectRatio="xMidYMid" width="50" height="50" viewBox="0 0 25 25">
  <defs>
    <style>
      .cls-1 {
        fill: #333;
        fill-rule: evenodd;
      }
    </style>
  </defs>
  <path d="M20.310,9.387 C18.975,9.387 17.777,8.822 16.924,7.925 L9.302,11.833 C9.335,12.057 9.370,12.280 9.370,12.512 C9.370,12.726 9.335,12.929 9.307,13.135 L16.958,17.058 C17.809,16.185 18.994,15.639 20.310,15.639 C22.898,15.639 24.995,17.737 24.995,20.325 C24.995,22.914 22.898,25.012 20.310,25.012 C17.723,25.012 15.625,22.914 15.625,20.325 C15.625,20.092 15.661,19.868 15.694,19.643 L8.073,15.735 C7.220,16.633 6.021,17.199 4.685,17.199 C2.098,17.199 0.000,15.101 0.000,12.512 C0.000,9.924 2.098,7.825 4.685,7.825 C6.002,7.825 7.187,8.372 8.038,9.247 L15.688,5.324 C15.660,5.118 15.625,4.913 15.625,4.699 C15.625,2.112 17.723,0.012 20.310,0.012 C22.898,0.012 24.995,2.112 24.995,4.699 C24.995,7.288 22.898,9.387 20.310,9.387 ZM20.313,21.857 C21.175,21.857 21.875,21.158 21.875,20.295 C21.875,19.432 21.175,18.732 20.313,18.732 C19.450,18.732 18.750,19.432 18.750,20.295 C18.750,21.158 19.450,21.857 20.313,21.857 ZM4.688,10.920 C3.825,10.920 3.125,11.619 3.125,12.483 C3.125,13.345 3.825,14.045 4.688,14.045 C5.551,14.045 6.250,13.345 6.250,12.483 C6.250,11.619 5.551,10.920 4.688,10.920 ZM20.313,3.107 C19.450,3.107 18.750,3.807 18.750,4.670 C18.750,5.533 19.450,6.232 20.313,6.232 C21.175,6.232 21.875,5.533 21.875,4.670 C21.875,3.807 21.175,3.107 20.313,3.107 Z" class="cls-1"/>
</svg>
