<svg xmlns="http://www.w3.org/2000/svg" xmlns:xlink="http://www.w3.org/1999/xlink" preserveAspectRatio="xMidYMid" width="60.94" height="60" viewBox="0 0 30.47 30">
  <defs>
    <style>
      .cls-1 {
        fill: #f60;
        fill-rule: evenodd;
      }
    </style>
  </defs>
  <path d="M15.236,0.000 C6.822,0.000 0.002,6.716 0.002,15.000 C0.002,23.284 6.822,30.000 15.236,30.000 C23.650,30.000 30.470,23.284 30.470,15.000 C30.470,6.716 23.650,0.000 15.236,0.000 ZM17.082,22.957 C13.561,23.016 12.227,20.487 12.227,18.707 L12.227,13.506 L10.591,13.506 L10.591,11.450 C13.043,10.580 13.633,8.402 13.771,7.161 C13.781,7.076 13.849,7.042 13.887,7.042 C13.926,7.042 16.255,7.042 16.255,7.042 L16.255,11.097 L19.489,11.097 L19.489,13.506 L16.243,13.506 L16.243,18.460 C16.255,19.135 16.505,20.064 17.799,20.030 C18.228,20.019 18.803,19.896 19.103,19.755 L19.881,22.025 C19.589,22.447 18.270,22.937 17.082,22.957 Z" class="cls-1"/>
</svg>
