<svg xmlns="http://www.w3.org/2000/svg" xmlns:xlink="http://www.w3.org/1999/xlink" preserveAspectRatio="xMidYMid" width="120.32" height="119.25" viewBox="0 0 60.16 59.625">
  <defs>
    <style>
      .cls-1 {
        fill: #fff;
        fill-rule: evenodd;
      }
    </style>
  </defs>
  <path d="M30.066,-0.000 C13.453,-0.000 -0.014,13.346 -0.014,29.810 C-0.014,46.273 13.453,59.619 30.066,59.619 C46.678,59.619 60.145,46.273 60.145,29.810 C60.145,13.346 46.678,-0.000 30.066,-0.000 ZM33.969,41.739 C31.388,41.739 28.960,40.357 28.130,38.787 C28.130,38.787 26.741,44.245 26.448,45.298 C25.413,49.020 22.368,52.746 22.133,53.050 C21.968,53.263 21.603,53.196 21.565,52.915 C21.499,52.441 20.723,47.744 21.637,43.913 C22.095,41.989 24.711,31.004 24.711,31.004 C24.711,31.004 23.949,29.492 23.949,27.256 C23.949,23.745 26.002,21.124 28.558,21.124 C30.732,21.124 31.782,22.742 31.782,24.681 C31.782,26.846 30.391,30.085 29.672,33.087 C29.072,35.600 30.944,37.650 33.444,37.650 C37.973,37.650 41.023,31.885 41.023,25.054 C41.023,19.864 37.496,15.976 31.077,15.976 C23.828,15.976 19.308,21.336 19.308,27.322 C19.308,29.386 19.923,30.842 20.886,31.968 C21.328,32.485 21.390,32.694 21.230,33.288 C21.113,33.724 20.852,34.773 20.742,35.189 C20.583,35.789 20.092,36.004 19.545,35.782 C16.206,34.431 14.650,30.806 14.650,26.732 C14.650,20.003 20.376,11.933 31.733,11.933 C40.860,11.933 46.866,18.478 46.866,25.504 C46.866,34.797 41.653,41.739 33.969,41.739 Z" class="cls-1"/>
</svg>
