<svg xmlns="http://www.w3.org/2000/svg" xmlns:xlink="http://www.w3.org/1999/xlink" preserveAspectRatio="xMidYMid" width="60.312" height="60" viewBox="0 0 30.156 30">
  <defs>
    <style>
      .cls-1 {
        fill: #f60;
        fill-rule: evenodd;
      }
    </style>
  </defs>
  <path d="M15.084,30.000 C6.762,30.000 0.015,23.284 0.015,15.000 C0.015,6.716 6.762,0.000 15.084,0.000 C23.406,0.000 30.152,6.716 30.152,15.000 C30.152,23.284 23.406,30.000 15.084,30.000 ZM14.903,5.909 C13.632,5.909 11.799,6.209 10.457,7.311 C9.446,8.179 8.953,9.377 8.953,10.456 C8.953,12.285 10.364,14.140 12.857,14.140 C13.092,14.140 13.349,14.117 13.609,14.093 C13.492,14.375 13.374,14.610 13.374,15.008 C13.374,15.735 13.750,16.181 14.080,16.603 C13.022,16.676 11.044,16.792 9.587,17.684 C8.199,18.506 7.776,19.702 7.776,20.546 C7.776,22.283 9.421,23.902 12.833,23.902 C16.878,23.902 19.020,21.673 19.020,19.467 C19.020,17.847 18.079,17.049 17.044,16.181 L16.196,15.526 C15.938,15.313 15.585,15.031 15.585,14.516 C15.585,13.999 15.938,13.671 16.244,13.366 C17.232,12.593 18.218,11.769 18.218,10.034 C18.218,8.250 17.091,7.311 16.550,6.866 L18.008,6.866 L19.538,5.909 L14.903,5.909 ZM25.348,13.447 L22.984,13.447 L22.984,11.101 L21.820,11.101 L21.820,13.447 L19.467,13.447 L19.467,14.618 L21.820,14.618 L21.820,16.979 L22.984,16.979 L22.984,14.618 L25.348,14.618 L25.348,13.447 ZM13.963,13.482 C11.939,13.482 11.022,10.879 11.022,9.307 C11.022,8.695 11.138,8.063 11.539,7.570 C11.916,7.101 12.573,6.796 13.187,6.796 C15.138,6.796 16.150,9.423 16.150,11.113 C16.150,11.535 16.103,12.285 15.562,12.827 C15.184,13.203 14.550,13.482 13.963,13.482 ZM14.879,17.284 C16.668,18.552 17.445,19.183 17.445,20.383 C17.445,21.836 16.244,22.918 13.986,22.918 C11.469,22.918 9.847,21.720 9.847,20.054 C9.847,18.388 11.352,17.824 11.869,17.637 C12.857,17.307 14.127,17.261 14.339,17.261 C14.574,17.261 14.692,17.261 14.879,17.284 Z" class="cls-1"/>
</svg>
