<svg xmlns="http://www.w3.org/2000/svg" xmlns:xlink="http://www.w3.org/1999/xlink" preserveAspectRatio="xMidYMid" width="60.938" height="60" viewBox="0 0 30.469 30">
  <defs>
    <style>
      .cls-1 {
        fill: #f60;
        fill-rule: evenodd;
      }
    </style>
  </defs>
  <path d="M15.225,30.000 C6.811,30.000 -0.010,23.284 -0.010,15.000 C-0.010,6.716 6.811,0.000 15.225,0.000 C23.638,0.000 30.458,6.716 30.458,15.000 C30.458,23.284 23.638,30.000 15.225,30.000 ZM15.224,6.448 C10.435,6.448 6.539,10.284 6.539,15.000 C6.539,19.716 10.435,23.552 15.224,23.552 C20.014,23.552 23.910,19.716 23.910,15.000 C23.910,10.284 20.014,6.448 15.224,6.448 ZM19.369,21.067 C19.293,20.622 18.898,18.484 17.928,15.858 C20.253,15.492 22.295,16.092 22.549,16.171 C22.219,18.203 21.034,19.959 19.369,21.067 ZM17.476,14.707 C17.424,14.582 17.371,14.456 17.317,14.330 C17.163,13.974 16.997,13.620 16.824,13.272 C19.567,12.169 20.811,10.600 20.967,10.392 C22.000,11.635 22.626,13.218 22.642,14.942 C22.398,14.891 19.945,14.401 17.476,14.707 ZM16.254,12.186 C15.038,9.987 13.691,8.180 13.486,7.909 C14.044,7.777 14.626,7.706 15.224,7.706 C17.109,7.706 18.832,8.403 20.142,9.547 C20.009,9.734 18.892,11.212 16.254,12.186 ZM7.962,13.515 C8.443,11.248 9.995,9.364 12.070,8.400 C12.266,8.665 13.592,10.473 14.821,12.625 C11.351,13.532 8.294,13.519 7.962,13.515 ZM15.434,13.748 C15.646,14.158 15.849,14.573 16.035,14.988 C15.937,15.015 15.840,15.044 15.743,15.075 C11.917,16.293 9.881,19.612 9.713,19.895 C8.528,18.600 7.806,16.887 7.806,15.011 C7.806,14.936 7.807,14.862 7.809,14.788 C8.134,14.795 11.729,14.840 15.434,13.748 ZM16.491,16.212 C16.507,16.207 16.523,16.201 16.540,16.196 C17.581,18.861 18.012,21.094 18.122,21.735 C17.232,22.109 16.252,22.316 15.224,22.316 C13.509,22.316 11.929,21.740 10.671,20.774 C10.804,20.505 12.306,17.648 16.491,16.212 Z" class="cls-1"/>
</svg>
