<svg xmlns="http://www.w3.org/2000/svg" xmlns:xlink="http://www.w3.org/1999/xlink" preserveAspectRatio="xMidYMid" width="60.312" height="60" viewBox="0 0 30.156 30">
  <defs>
    <style>
      .cls-1 {
        fill: #f60;
        fill-rule: evenodd;
      }
    </style>
  </defs>
  <path d="M15.076,30.000 C6.754,30.000 0.007,23.284 0.007,15.000 C0.007,6.716 6.754,0.000 15.076,0.000 C23.398,0.000 30.144,6.716 30.144,15.000 C30.144,23.284 23.398,30.000 15.076,30.000 ZM7.407,21.914 L10.780,21.914 L10.780,11.811 L7.407,11.811 L7.407,21.914 ZM9.115,6.940 C7.962,6.940 7.207,7.695 7.207,8.686 C7.207,9.655 7.939,10.432 9.072,10.432 L9.093,10.432 C10.269,10.432 11.002,9.655 11.002,8.686 C10.980,7.695 10.269,6.940 9.115,6.940 ZM22.944,16.121 C22.944,13.017 21.281,11.574 19.060,11.574 C17.268,11.574 16.468,12.554 16.020,13.243 L16.020,11.811 L12.646,11.811 C12.691,12.759 12.646,21.914 12.646,21.914 L16.020,21.914 L16.020,16.272 C16.020,15.970 16.043,15.668 16.131,15.453 C16.375,14.849 16.930,14.224 17.862,14.224 C19.083,14.224 19.571,15.151 19.571,16.509 L19.571,21.914 L22.944,21.914 L22.944,16.121 ZM15.998,13.276 C16.005,13.265 16.014,13.253 16.020,13.243 L16.020,13.276 L15.998,13.276 Z" class="cls-1"/>
</svg>
