<svg xmlns="http://www.w3.org/2000/svg" xmlns:xlink="http://www.w3.org/1999/xlink" preserveAspectRatio="xMidYMid" width="121.62" height="119.248" viewBox="0 0 60.81 59.624">
  <defs>
    <style>
      .cls-1 {
        fill: #f60;
        fill-rule: evenodd;
      }
    </style>
  </defs>
  <path d="M30.400,59.626 C13.605,59.626 -0.010,46.280 -0.010,29.817 C-0.010,13.353 13.605,0.007 30.400,0.007 C47.195,0.007 60.810,13.353 60.810,29.817 C60.810,46.280 47.195,59.626 30.400,59.626 ZM31.430,30.630 C30.656,29.518 29.489,28.736 27.913,28.292 C29.071,27.756 29.936,27.065 30.526,26.222 C31.111,25.379 31.404,24.323 31.404,23.060 C31.404,21.892 31.208,20.903 30.818,20.115 C30.418,19.314 29.860,18.678 29.147,18.200 C28.422,17.722 27.565,17.374 26.560,17.165 C25.550,16.950 24.445,16.846 23.220,16.846 L11.148,16.846 L11.148,41.946 L23.559,41.946 C24.706,41.946 25.826,41.804 26.905,41.523 C27.996,41.242 28.970,40.810 29.818,40.222 C30.659,39.638 31.342,38.882 31.843,37.949 C32.340,37.027 32.588,35.931 32.588,34.658 C32.588,33.088 32.208,31.749 31.430,30.630 ZM48.701,18.530 L38.322,18.530 L38.322,21.007 L48.701,21.007 L48.701,18.530 ZM50.759,26.565 C50.003,25.557 49.041,24.751 47.868,24.157 C46.690,23.554 45.316,23.258 43.748,23.258 C42.327,23.258 41.045,23.506 39.881,23.998 C38.718,24.491 37.719,25.168 36.877,26.025 C36.037,26.877 35.398,27.893 34.936,29.070 C34.483,30.243 34.251,31.513 34.251,32.872 C34.251,34.277 34.474,35.574 34.917,36.745 C35.364,37.923 35.991,38.926 36.800,39.774 C37.628,40.618 38.614,41.266 39.793,41.728 C40.974,42.185 42.288,42.416 43.748,42.416 C45.843,42.416 47.642,41.946 49.116,41.002 C50.608,40.062 51.702,38.500 52.422,36.312 L47.938,36.312 C47.764,36.875 47.315,37.416 46.577,37.923 C45.833,38.430 44.945,38.685 43.918,38.685 C42.490,38.685 41.387,38.318 40.625,37.588 C39.860,36.857 39.364,35.497 39.364,34.061 L52.742,34.061 C52.838,32.651 52.721,31.304 52.388,30.015 C52.052,28.723 51.515,27.572 50.759,26.565 ZM39.597,29.717 C39.727,29.263 39.951,28.839 40.279,28.437 C40.610,28.041 41.042,27.705 41.569,27.435 C42.108,27.161 42.781,27.027 43.595,27.027 C44.845,27.027 45.871,27.382 46.476,28.039 C47.083,28.701 47.528,29.642 47.649,30.915 L39.364,30.915 C39.388,30.560 39.466,30.159 39.597,29.717 ZM25.711,36.981 C25.334,37.234 24.887,37.406 24.383,37.514 C23.886,37.623 23.358,37.671 22.802,37.671 L16.786,37.671 L16.786,30.759 L22.915,30.759 C24.129,30.759 25.115,31.033 25.855,31.583 C26.594,32.141 26.965,33.059 26.965,34.353 C26.965,35.013 26.855,35.559 26.628,35.980 C26.401,36.404 26.088,36.738 25.711,36.981 ZM24.972,26.283 C24.317,26.755 23.490,26.987 22.491,26.987 L16.786,26.987 L16.786,21.122 L22.061,21.122 C22.559,21.122 23.046,21.157 23.510,21.246 C23.983,21.325 24.391,21.473 24.751,21.686 C25.115,21.892 25.403,22.185 25.620,22.559 C25.830,22.934 25.934,23.417 25.934,24.001 C25.934,25.052 25.620,25.819 24.972,26.283 Z" class="cls-1"/>
</svg>
