<svg xmlns="http://www.w3.org/2000/svg" xmlns:xlink="http://www.w3.org/1999/xlink" preserveAspectRatio="xMidYMid" width="120.32" height="119.25" viewBox="0 0 60.16 59.625">
  <defs>
    <style>
      .cls-1 {
        fill: #f60;
        fill-rule: evenodd;
      }
    </style>
  </defs>
  <path d="M30.091,59.619 C13.478,59.619 0.011,46.273 0.011,29.810 C0.011,13.346 13.478,-0.000 30.091,-0.000 C46.703,-0.000 60.170,13.346 60.170,29.810 C60.170,46.273 46.703,59.619 30.091,59.619 ZM29.729,11.743 C27.191,11.743 23.533,12.339 20.855,14.530 C18.836,16.255 17.852,18.635 17.852,20.778 C17.852,24.415 20.668,28.101 25.645,28.101 C26.114,28.101 26.627,28.055 27.146,28.007 C26.912,28.567 26.678,29.035 26.678,29.825 C26.678,31.270 27.427,32.156 28.087,32.995 C25.973,33.139 22.026,33.371 19.117,35.143 C16.347,36.776 15.503,39.153 15.503,40.831 C15.503,44.283 18.787,47.500 25.597,47.500 C33.672,47.500 37.947,43.071 37.947,38.688 C37.947,35.467 36.069,33.882 34.002,32.156 L32.311,30.854 C31.796,30.431 31.091,29.871 31.091,28.848 C31.091,27.821 31.796,27.168 32.407,26.562 C34.378,25.025 36.347,23.388 36.347,19.941 C36.347,16.395 34.097,14.530 33.018,13.644 L35.927,13.644 L38.980,11.743 L29.729,11.743 ZM50.580,26.723 L45.860,26.723 L45.860,22.061 L43.536,22.061 L43.536,26.723 L38.840,26.723 L38.840,29.051 L43.536,29.051 L43.536,33.742 L45.860,33.742 L45.860,29.051 L50.580,29.051 L50.580,26.723 ZM27.852,26.793 C23.812,26.793 21.983,21.619 21.983,18.495 C21.983,17.280 22.215,16.024 23.014,15.045 C23.767,14.111 25.079,13.505 26.303,13.505 C30.199,13.505 32.218,18.726 32.218,22.085 C32.218,22.924 32.125,24.415 31.044,25.490 C30.290,26.237 29.026,26.793 27.852,26.793 ZM29.682,34.349 C33.253,36.868 34.803,38.123 34.803,40.507 C34.803,43.395 32.407,45.545 27.899,45.545 C22.875,45.545 19.637,43.163 19.637,39.853 C19.637,36.542 22.640,35.422 23.673,35.051 C25.645,34.394 28.180,34.302 28.603,34.302 C29.073,34.302 29.308,34.302 29.682,34.349 Z" class="cls-1"/>
</svg>
