<svg xmlns="http://www.w3.org/2000/svg" xmlns:xlink="http://www.w3.org/1999/xlink" preserveAspectRatio="xMidYMid" width="60.25" height="60" viewBox="0 0 30.125 30">
  <defs>
    <style>
      .cls-1 {
        fill: #fff;
        fill-rule: evenodd;
      }
    </style>
  </defs>
  <path d="M-0.000,15.000 C-0.000,6.716 6.746,0.000 15.069,0.000 C23.391,0.000 30.137,6.716 30.137,15.000 C30.137,23.284 23.391,30.000 15.069,30.000 C6.746,30.000 -0.000,23.284 -0.000,15.000 ZM23.167,10.279 C22.584,10.537 21.957,10.711 21.299,10.789 C21.971,10.388 22.486,9.754 22.729,8.998 C22.101,9.369 21.405,9.638 20.664,9.783 C20.071,9.154 19.226,8.762 18.291,8.762 C16.495,8.762 15.039,10.210 15.039,11.999 C15.039,12.252 15.067,12.499 15.123,12.736 C12.420,12.601 10.024,11.313 8.421,9.354 C8.140,9.832 7.980,10.388 7.980,10.981 C7.980,12.104 8.554,13.095 9.427,13.676 C8.894,13.659 8.392,13.513 7.954,13.271 C7.954,13.284 7.954,13.298 7.954,13.311 C7.954,14.880 9.074,16.188 10.562,16.485 C10.290,16.560 10.002,16.599 9.705,16.599 C9.495,16.599 9.292,16.579 9.093,16.541 C9.508,17.827 10.708,18.763 12.131,18.789 C11.017,19.658 9.616,20.175 8.093,20.175 C7.830,20.175 7.571,20.160 7.317,20.130 C8.756,21.048 10.465,21.584 12.302,21.584 C18.283,21.584 21.553,16.651 21.553,12.374 C21.553,12.233 21.551,12.094 21.544,11.955 C22.180,11.498 22.731,10.928 23.167,10.279 Z" class="cls-1"/>
</svg>
