<svg xmlns="http://www.w3.org/2000/svg" xmlns:xlink="http://www.w3.org/1999/xlink" preserveAspectRatio="xMidYMid" width="120.3" height="119.25" viewBox="0 0 60.15 59.625">
  <defs>
    <style>
      .cls-1 {
        fill: #fff;
        fill-rule: evenodd;
      }
    </style>
  </defs>
  <path d="M30.089,59.619 C13.476,59.619 0.009,46.273 0.009,29.810 C0.009,13.346 13.476,-0.000 30.089,-0.000 C46.701,-0.000 60.168,13.346 60.168,29.810 C60.168,46.273 46.701,59.619 30.089,59.619 ZM14.780,43.550 L21.513,43.550 L21.513,23.471 L14.780,23.471 L14.780,43.550 ZM18.191,13.792 C15.888,13.792 14.382,15.292 14.382,17.261 C14.382,19.187 15.843,20.731 18.103,20.731 L18.146,20.731 C20.494,20.731 21.956,19.187 21.956,17.261 C21.912,15.292 20.494,13.792 18.191,13.792 ZM45.795,32.037 C45.795,25.869 42.474,23.000 38.043,23.000 C34.465,23.000 32.868,24.949 31.974,26.317 L31.974,23.471 L25.239,23.471 C25.328,25.355 25.239,43.550 25.239,43.550 L31.974,43.550 L31.974,32.337 C31.974,31.737 32.018,31.138 32.196,30.709 C32.683,29.509 33.791,28.267 35.651,28.267 C38.088,28.267 39.062,30.110 39.062,32.808 L39.062,43.550 L45.795,43.550 L45.795,32.037 ZM31.929,26.383 C31.943,26.362 31.961,26.338 31.974,26.317 L31.974,26.383 L31.929,26.383 Z" class="cls-1"/>
</svg>
