<svg xmlns="http://www.w3.org/2000/svg" xmlns:xlink="http://www.w3.org/1999/xlink" preserveAspectRatio="xMidYMid" width="60.312" height="60" viewBox="0 0 30.156 30">
  <defs>
    <style>
      .cls-1 {
        fill: #fff;
        fill-rule: evenodd;
      }
    </style>
  </defs>
  <path d="M0.003,15.000 C0.003,6.716 6.750,0.000 15.072,0.000 C23.394,0.000 30.141,6.716 30.141,15.000 C30.141,23.284 23.394,30.000 15.072,30.000 C6.750,30.000 0.003,23.284 0.003,15.000 ZM19.434,12.606 L16.013,12.606 C16.013,11.293 16.013,10.704 16.013,10.461 C16.013,10.459 16.013,10.421 16.013,10.314 C16.013,9.449 16.195,8.927 17.332,8.927 C18.382,8.927 19.344,8.937 19.344,8.937 L19.419,6.006 C19.419,6.006 18.475,5.884 17.198,5.884 C14.047,5.884 12.679,7.819 12.679,9.925 C12.679,11.320 12.679,12.606 12.679,12.606 L10.364,12.606 L10.364,15.744 L12.679,15.744 L12.679,24.462 L16.013,24.462 L16.013,15.744 L19.285,15.744 L19.434,12.606 Z" class="cls-1"/>
</svg>
