<svg xmlns="http://www.w3.org/2000/svg" xmlns:xlink="http://www.w3.org/1999/xlink" preserveAspectRatio="xMidYMid" width="60.938" height="60" viewBox="0 0 30.469 30">
  <defs>
    <style>
      .cls-1 {
        fill: #fff;
        fill-rule: evenodd;
      }
    </style>
  </defs>
  <path d="M15.245,30.000 C6.831,30.000 0.011,23.284 0.011,15.000 C0.011,6.716 6.831,0.000 15.245,0.000 C23.658,0.000 30.479,6.716 30.479,15.000 C30.479,23.284 23.658,30.000 15.245,30.000 ZM15.761,15.409 C15.373,14.850 14.788,14.456 13.999,14.233 C14.579,13.963 15.013,13.615 15.308,13.191 C15.601,12.767 15.748,12.236 15.748,11.600 C15.748,11.012 15.650,10.515 15.454,10.118 C15.254,9.715 14.974,9.395 14.617,9.155 C14.254,8.914 13.824,8.739 13.321,8.634 C12.815,8.526 12.261,8.473 11.648,8.473 L5.600,8.473 L5.600,21.103 L11.818,21.103 C12.392,21.103 12.954,21.032 13.494,20.891 C14.040,20.749 14.528,20.532 14.953,20.236 C15.375,19.942 15.717,19.562 15.968,19.092 C16.216,18.628 16.341,18.077 16.341,17.436 C16.341,16.646 16.150,15.972 15.761,15.409 ZM24.413,9.321 L19.213,9.321 L19.213,10.567 L24.413,10.567 L24.413,9.321 ZM25.444,13.364 C25.065,12.856 24.583,12.451 23.995,12.152 C23.405,11.849 22.717,11.700 21.932,11.700 C21.220,11.700 20.577,11.824 19.995,12.072 C19.412,12.320 18.912,12.661 18.490,13.092 C18.069,13.521 17.749,14.032 17.517,14.624 C17.290,15.215 17.174,15.853 17.174,16.537 C17.174,17.244 17.286,17.897 17.507,18.487 C17.731,19.079 18.046,19.584 18.451,20.010 C18.866,20.435 19.360,20.761 19.950,20.994 C20.542,21.224 21.200,21.340 21.932,21.340 C22.981,21.340 23.882,21.103 24.621,20.628 C25.368,20.155 25.916,19.369 26.277,18.269 L24.031,18.269 C23.943,18.552 23.719,18.824 23.349,19.079 C22.976,19.334 22.531,19.463 22.017,19.463 C21.301,19.463 20.749,19.278 20.367,18.910 C19.984,18.543 19.735,17.859 19.735,17.136 L26.437,17.136 C26.485,16.426 26.427,15.748 26.260,15.100 C26.092,14.450 25.822,13.871 25.444,13.364 ZM19.852,14.950 C19.917,14.721 20.029,14.508 20.194,14.306 C20.360,14.106 20.576,13.937 20.840,13.802 C21.110,13.664 21.447,13.596 21.855,13.596 C22.481,13.596 22.995,13.775 23.298,14.106 C23.602,14.439 23.825,14.912 23.886,15.553 L19.735,15.553 C19.747,15.374 19.786,15.172 19.852,14.950 ZM12.896,18.605 C12.707,18.733 12.483,18.819 12.231,18.873 C11.982,18.928 11.717,18.952 11.439,18.952 L8.425,18.952 L8.425,15.474 L11.495,15.474 C12.103,15.474 12.597,15.612 12.968,15.889 C13.338,16.170 13.524,16.632 13.524,17.283 C13.524,17.615 13.469,17.890 13.355,18.101 C13.241,18.315 13.085,18.483 12.896,18.605 ZM11.283,13.576 L8.425,13.576 L8.425,10.625 L11.067,10.625 C11.317,10.625 11.561,10.642 11.793,10.687 C12.030,10.727 12.234,10.801 12.415,10.909 C12.597,11.012 12.741,11.160 12.850,11.348 C12.955,11.537 13.008,11.780 13.008,12.073 C13.008,12.603 12.850,12.989 12.525,13.222 C12.197,13.459 11.783,13.576 11.283,13.576 Z" class="cls-1"/>
</svg>
