<svg xmlns="http://www.w3.org/2000/svg" xmlns:xlink="http://www.w3.org/1999/xlink" preserveAspectRatio="xMidYMid" width="60.312" height="60" viewBox="0 0 30.156 30">
  <defs>
    <style>
      .cls-1 {
        fill: #f60;
        fill-rule: evenodd;
      }
    </style>
  </defs>
  <path d="M15.081,0.000 C6.758,0.000 0.012,6.716 0.012,15.000 C0.012,23.284 6.758,30.000 15.081,30.000 C23.402,30.000 30.149,23.284 30.149,15.000 C30.149,6.716 23.402,0.000 15.081,0.000 ZM17.036,21.003 C15.743,21.003 14.527,20.307 14.111,19.517 C14.111,19.517 13.415,22.264 13.268,22.794 C12.750,24.667 11.224,26.541 11.106,26.695 C11.024,26.802 10.841,26.768 10.822,26.626 C10.789,26.388 10.400,24.025 10.858,22.097 C11.087,21.129 12.398,15.601 12.398,15.601 C12.398,15.601 12.016,14.840 12.016,13.715 C12.016,11.949 13.045,10.629 14.325,10.629 C15.414,10.629 15.940,11.443 15.940,12.419 C15.940,13.509 15.243,15.139 14.883,16.649 C14.583,17.914 15.520,18.945 16.773,18.945 C19.042,18.945 20.570,16.044 20.570,12.607 C20.570,9.995 18.803,8.039 15.587,8.039 C11.956,8.039 9.691,10.736 9.691,13.748 C9.691,14.787 10.000,15.520 10.482,16.086 C10.703,16.347 10.734,16.451 10.654,16.750 C10.596,16.970 10.465,17.498 10.409,17.707 C10.330,18.009 10.084,18.117 9.810,18.005 C8.137,17.325 7.358,15.502 7.358,13.451 C7.358,10.065 10.226,6.005 15.916,6.005 C20.488,6.005 23.497,9.298 23.497,12.834 C23.497,17.510 20.885,21.003 17.036,21.003 Z" class="cls-1"/>
</svg>
