<svg xmlns="http://www.w3.org/2000/svg" xmlns:xlink="http://www.w3.org/1999/xlink" preserveAspectRatio="xMidYMid" width="40" height="40" viewBox="0 0 40 40">
  <defs>
    <style>
      .cls-1 {
        fill: #f60;
        fill-rule: evenodd;
      }
    </style>
  </defs>
  <path d="M-0.002,19.995 C-0.002,8.952 8.955,-0.001 20.004,-0.001 C31.053,-0.001 40.009,8.952 40.009,19.995 C40.009,31.039 31.053,39.991 20.004,39.991 C8.955,39.991 -0.002,31.039 -0.002,19.995 ZM25.795,16.804 L21.253,16.804 C21.253,15.053 21.253,14.268 21.253,13.944 C21.253,13.942 21.253,13.891 21.253,13.748 C21.253,12.595 21.495,11.900 23.004,11.900 C24.398,11.900 25.676,11.912 25.676,11.912 L25.775,8.005 C25.775,8.005 24.522,7.843 22.827,7.843 C18.643,7.843 16.827,10.422 16.827,13.230 C16.827,15.089 16.827,16.804 16.827,16.804 L13.753,16.804 L13.753,20.988 L16.827,20.988 L16.827,32.608 L21.253,32.608 L21.253,20.988 L25.597,20.988 L25.795,16.804 Z" class="cls-1"/>
</svg>
