<svg xmlns="http://www.w3.org/2000/svg" xmlns:xlink="http://www.w3.org/1999/xlink" preserveAspectRatio="xMidYMid" width="40" height="40" viewBox="0 0 40 40">
  <defs>
    <style>
      .cls-1 {
        fill: #f60;
        fill-rule: evenodd;
      }
    </style>
  </defs>
  <path d="M20.000,39.994 C8.956,39.994 0.004,31.042 0.004,19.999 C0.004,8.956 8.956,0.003 20.000,0.003 C31.043,0.003 39.995,8.956 39.995,19.999 C39.995,31.042 31.043,39.994 20.000,39.994 ZM9.823,29.216 L14.298,29.216 L14.298,15.747 L9.823,15.747 L9.823,29.216 ZM12.090,9.254 C10.559,9.254 9.558,10.261 9.558,11.581 C9.558,12.874 10.529,13.909 12.032,13.909 L12.060,13.909 C13.621,13.909 14.593,12.874 14.593,11.581 C14.564,10.261 13.621,9.254 12.090,9.254 ZM30.440,21.493 C30.440,17.356 28.233,15.431 25.287,15.431 C22.908,15.431 21.847,16.738 21.253,17.656 L21.253,15.747 L16.776,15.747 C16.835,17.011 16.776,29.216 16.776,29.216 L21.253,29.216 L21.253,21.694 C21.253,21.291 21.282,20.890 21.400,20.602 C21.724,19.798 22.460,18.964 23.697,18.964 C25.317,18.964 25.965,20.200 25.965,22.010 L25.965,29.216 L30.440,29.216 L30.440,21.493 ZM21.223,17.700 C21.232,17.686 21.244,17.671 21.253,17.656 L21.253,17.700 L21.223,17.700 Z" class="cls-1"/>
</svg>
