<svg xmlns="http://www.w3.org/2000/svg" xmlns:xlink="http://www.w3.org/1999/xlink" preserveAspectRatio="xMidYMid" width="80" height="80" viewBox="0 0 40 40">
  <defs>
    <style>
      .cls-1 {
        fill: #000;
        fill-rule: evenodd;
      }
    </style>
  </defs>
  <path d="M0.000,20.000 C0.000,8.954 8.954,0.000 20.000,0.000 C31.046,0.000 40.000,8.954 40.000,20.000 C40.000,31.046 31.046,40.000 20.000,40.000 C8.954,40.000 0.000,31.046 0.000,20.000 ZM25.790,16.808 L21.249,16.808 C21.249,15.057 21.249,14.271 21.249,13.948 C21.249,13.946 21.249,13.895 21.249,13.752 C21.249,12.598 21.491,11.903 22.999,11.903 C24.393,11.903 25.670,11.915 25.670,11.915 L25.769,8.007 C25.769,8.007 24.516,7.845 22.822,7.845 C18.640,7.845 16.824,10.425 16.824,13.233 C16.824,15.093 16.824,16.808 16.824,16.808 L13.751,16.808 L13.751,20.993 L16.824,20.993 L16.824,32.616 L21.249,32.616 L21.249,20.993 L25.592,20.993 L25.790,16.808 Z" class="cls-1"/>
</svg>
